<?xml version="1.0" standalone="no"?>
<!DOCTYPE svg PUBLIC "-//W3C//DTD SVG 20010904//EN"
 "http://www.w3.org/TR/2001/REC-SVG-20010904/DTD/svg10.dtd">
<svg version="1.0" xmlns="http://www.w3.org/2000/svg"
 width="450.000000pt" height="600.000000pt" viewBox="0 0 450.000000 600.000000"
 preserveAspectRatio="xMidYMid meet">

<g transform="translate(0.000000,600.000000) scale(0.100000,-0.100000)"
fill="#000000" stroke="none">
<path d="M0 3000 l0 -3000 2250 0 2250 0 0 570 c0 373 -3 570 -10 570 -5 0
-10 -11 -10 -23 0 -38 -29 -56 -94 -59 -41 -2 -60 2 -67 12 -23 36 21 106 87
140 23 13 45 29 48 37 4 9 13 12 26 8 20 -6 20 -2 20 294 0 190 -4 301 -10
301 -5 0 -13 -12 -16 -27 -4 -16 -10 -32 -14 -38 -5 -5 -10 -21 -12 -34 -4
-30 -28 -41 -28 -12 0 11 5 23 10 26 8 5 7 11 -1 21 -16 19 -39 18 -39 -3 0
-34 -33 -104 -46 -99 -18 7 -25 -7 -26 -52 0 -21 -7 -47 -14 -57 -12 -16 -18
-18 -34 -7 -26 16 -45 15 -60 -3 -14 -17 3 -27 52 -29 34 -1 44 -26 34 -81 -5
-27 -3 -37 9 -41 22 -9 18 -23 -5 -17 -11 3 -20 0 -20 -6 0 -6 -7 -11 -16 -11
-11 0 -14 5 -10 16 5 14 4 15 -8 5 -8 -7 -19 -10 -25 -7 -5 3 -12 -1 -15 -10
-9 -23 -22 -9 -35 39 -16 54 2 366 20 378 7 4 10 16 7 27 -7 24 15 164 31 206
9 23 9 31 -1 38 -17 10 -41 10 -34 -1 3 -5 -1 -14 -9 -21 -8 -7 -15 -19 -15
-26 0 -8 -4 -14 -10 -14 -19 0 -40 -60 -40 -118 0 -45 -5 -65 -20 -82 -29 -33
-31 -145 -3 -165 13 -10 13 -13 1 -26 -8 -8 -17 -22 -21 -33 -6 -15 -10 -16
-22 -6 -8 6 -19 9 -24 5 -6 -3 -37 8 -70 25 -45 24 -68 30 -90 25 -17 -3 -32
-2 -36 4 -4 8 -13 8 -27 0 -18 -10 -19 -13 -7 -23 8 -6 15 -25 15 -43 1 -17
11 -42 23 -54 24 -26 26 -46 6 -73 -15 -20 -47 -15 -44 6 4 21 -12 68 -23 68
-5 0 -7 4 -3 9 3 5 2 12 -3 15 -4 2 -9 35 -10 72 -2 38 -8 74 -14 82 -12 14
-31 111 -28 147 0 11 1 32 2 48 0 15 4 27 7 27 3 0 12 4 19 9 12 7 11 14 -2
40 -9 17 -21 31 -26 31 -15 0 -12 22 10 63 11 20 20 44 20 52 0 8 9 15 19 15
21 0 37 17 27 27 -3 4 -17 1 -30 -6 -32 -18 -63 0 -70 39 -3 16 -9 44 -12 62
l-6 32 -15 -27 c-7 -15 -11 -32 -8 -37 3 -5 -1 -22 -9 -38 -14 -27 -31 -95
-45 -182 -6 -38 -8 -42 -15 -22 -4 12 -4 31 -1 42 4 14 1 22 -10 26 -14 6 -16
15 -10 50 4 29 2 44 -4 44 -6 0 -11 -2 -11 -4 0 -2 -7 -40 -15 -83 -17 -87
-20 -169 -6 -177 11 -7 20 -43 34 -146 13 -92 12 -120 -6 -120 -20 0 -30 11
-94 95 -33 44 -72 91 -87 104 -14 14 -26 30 -26 36 0 6 -9 20 -19 32 -18 19
-59 71 -126 159 -16 21 -46 58 -67 81 -23 26 -38 53 -38 68 0 16 -6 25 -16 25
-9 0 -34 15 -57 34 -23 18 -55 41 -72 49 -16 9 -48 31 -69 50 l-39 33 43 43
c37 36 42 46 36 73 -5 23 -2 34 12 44 10 7 29 33 42 58 14 28 30 46 41 46 9 0
33 -19 53 -42 37 -44 47 -39 21 11 -8 16 -11 31 -8 35 4 3 1 6 -5 6 -7 0 -12
7 -12 15 0 8 -7 15 -15 15 -23 0 -18 16 11 28 14 7 22 17 19 22 -3 6 -1 10 4
10 6 0 11 6 11 13 0 8 10 19 23 26 26 14 63 69 59 89 -2 6 3 12 10 12 34 0 56
-14 73 -48 11 -20 24 -40 30 -44 5 -4 11 -67 13 -140 2 -73 6 -140 9 -148 3
-8 7 -33 8 -56 2 -55 36 -120 61 -116 11 2 38 4 61 5 27 1 44 6 48 16 7 19
-16 33 -32 19 -14 -11 -43 5 -43 25 0 5 -12 21 -27 35 -18 17 -23 27 -15 30 7
2 18 -1 25 -6 7 -5 44 -20 82 -31 82 -25 175 -69 192 -91 6 -9 50 -29 98 -45
70 -24 85 -33 82 -47 -4 -15 1 -18 32 -18 20 0 42 -5 49 -12 9 -9 12 -9 12 3
0 25 29 77 52 93 16 12 19 18 10 29 -9 10 -8 18 3 34 13 19 13 22 -11 38 -14
9 -30 30 -36 46 -5 16 -14 29 -18 29 -4 0 -10 10 -14 23 -3 12 -19 33 -37 46
-26 19 -35 21 -55 12 -28 -12 -31 -54 -12 -157 10 -56 14 -64 34 -64 28 0 40
-16 24 -34 -18 -23 -128 -9 -168 21 -39 29 -42 48 -7 39 31 -8 75 19 75 45 0
13 -7 19 -24 19 -14 0 -28 -4 -31 -10 -3 -5 -15 -10 -25 -10 -10 0 -23 -8 -29
-17 -9 -17 -16 -15 -85 19 -42 21 -76 44 -76 51 0 6 -16 26 -35 42 -19 17 -35
35 -35 41 0 6 -10 19 -22 28 -22 16 -23 16 -4 29 11 6 30 22 42 34 11 13 26
23 32 23 19 0 47 69 33 83 -6 6 -11 17 -11 24 0 16 82 -68 118 -121 15 -22 27
-54 28 -77 2 -38 26 -89 42 -89 8 0 42 134 42 167 0 12 -8 35 -17 52 -10 16
-15 33 -11 36 4 4 53 -23 110 -61 157 -103 193 -133 193 -157 0 -20 5 -22 46
-19 25 1 58 -2 73 -8 28 -10 28 -15 9 -68 -4 -8 3 -11 18 -10 16 2 27 -4 34
-20 25 -56 48 -4 23 55 -6 15 -10 32 -9 38 2 7 13 1675 11 1750 0 6 -2 98 -5
205 -5 189 4 372 24 495 16 95 20 105 48 105 52 0 89 -70 104 -193 5 -47 9
-565 10 -1197 0 -613 3 -1157 7 -1209 6 -72 5 -94 -5 -98 -19 -7 -16 -24 10
-51 l22 -25 -43 7 c-24 3 -48 7 -53 9 -6 1 -16 -16 -24 -38 -12 -34 -12 -42 0
-55 8 -9 15 -22 15 -28 0 -34 33 6 35 43 0 5 18 16 40 24 22 8 45 22 52 31 11
13 12 13 13 -2 0 -10 5 -18 10 -18 7 0 10 522 10 1546 l0 1546 -267 -2 c-148
-1 -273 -2 -280 -1 -7 0 -17 20 -23 44 -6 23 -18 57 -27 76 -24 52 -26 51 207
66 l105 7 3 239 3 239 -508 -2 c-474 -3 -508 -4 -507 -20 1 -14 -2 -16 -17 -7
-25 13 -67 20 -159 25 -69 4 -73 3 -55 -11 11 -9 30 -18 43 -22 12 -3 22 -9
22 -13 0 -14 -41 -23 -53 -11 -6 6 -19 11 -28 11 -20 0 -79 32 -79 43 0 4 -11
7 -24 7 -33 0 -24 -31 18 -63 31 -24 62 -31 183 -43 47 -5 60 -10 56 -20 -3
-8 -14 -14 -25 -14 -14 0 -18 -5 -14 -15 8 -21 -17 -19 -47 5 -14 11 -33 20
-42 20 -9 0 -29 7 -46 15 -19 11 -35 13 -47 7 -9 -5 -26 -6 -37 -1 -11 4 -38
8 -60 8 -35 0 -38 -1 -22 -13 9 -7 17 -16 17 -20 0 -14 -30 -4 -58 19 -17 14
-39 25 -50 25 -26 0 -38 18 -18 26 23 9 20 24 -4 24 -11 0 -29 9 -40 20 -30
30 -115 22 -96 -9 9 -14 1 -14 -43 -1 -21 6 -40 6 -50 0 -13 -7 -10 -9 12 -10
16 0 26 -4 22 -10 -8 -13 -85 -13 -85 -1 0 5 8 12 18 14 19 5 -95 12 -145 8
-24 -1 -33 2 -33 14 0 10 -10 15 -32 15 -23 0 -29 -3 -19 -9 19 -12 5 -30 -35
-47 -44 -19 -70 -19 -55 -1 6 8 8 16 5 19 -3 3 11 9 31 12 58 11 31 24 -50 23
-53 0 -75 -3 -75 -12 0 -14 -30 -29 -39 -19 -3 3 3 12 13 20 17 12 -98 14
-858 14 l-878 0 7 -262 c4 -145 9 -265 12 -268 3 -3 171 -3 375 -2 l369 4 -3
-29 c-2 -17 -11 -32 -25 -38 -13 -5 -23 -18 -23 -27 0 -10 -4 -18 -9 -18 -5 0
-14 -14 -20 -31 l-11 -31 -297 5 c-188 4 -310 10 -330 17 -31 11 -32 13 -18
33 8 12 15 24 15 28 0 4 -41 10 -91 14 -80 6 -91 10 -99 29 -9 26 -4 36 19 36
9 0 25 6 35 13 18 13 18 15 0 48 -21 38 -26 90 -29 299 -2 198 3 180 -55 180
l-50 0 0 -3000z m3170 2945 c-7 -8 -16 -12 -21 -9 -13 8 -1 24 18 24 13 0 13
-3 3 -15z m-1243 -1 c-3 -3 -12 -4 -19 -1 -8 3 -5 6 6 6 11 1 17 -2 13 -5z
m-77 -44 c0 -5 -4 -10 -9 -10 -6 0 -13 5 -16 10 -3 6 1 10 9 10 9 0 16 -4 16
-10z m490 1 c0 -12 -20 -25 -27 -18 -7 7 6 27 18 27 5 0 9 -4 9 -9z m557 -37
c-3 -3 -12 -4 -19 -1 -8 3 -5 6 6 6 11 1 17 -2 13 -5z m338 -19 c17 -8 23 -14
14 -14 -9 -1 -30 6 -45 14 -36 19 -10 19 31 0z m555 -9 c0 -10 -113 -76 -131
-76 -12 0 -37 -14 -56 -30 -33 -29 -33 -30 -9 -24 15 4 26 2 26 -4 0 -14 -63
-52 -86 -51 -17 0 -17 2 4 16 32 22 27 30 -15 28 -115 -7 -107 24 15 58 53 15
124 41 157 57 53 25 95 37 95 26z m-1365 -26 c4 -6 16 -8 28 -5 16 5 18 4 8
-3 -11 -8 -10 -12 8 -21 11 -7 21 -20 21 -31 0 -17 -2 -18 -27 -4 -16 7 -35
14 -43 14 -8 0 -28 11 -45 25 -16 14 -22 22 -12 19 9 -3 17 -1 17 5 0 14 37
14 45 1z m514 -19 c6 -10 29 -26 51 -35 22 -9 40 -20 40 -25 0 -5 11 -12 25
-15 14 -4 25 -11 25 -16 0 -14 -13 -12 -36 4 -14 11 -35 13 -79 9 -62 -6 -70
4 -13 17 l33 7 -45 20 c-25 11 -51 28 -59 37 -12 14 -10 16 17 16 20 0 35 -7
41 -19z m241 3 l25 -15 -25 5 c-14 3 -33 6 -42 6 -10 0 -18 5 -18 10 0 15 31
12 60 -6z m-460 -14 c-13 -11 -37 -20 -53 -20 -37 0 -33 5 18 23 56 20 61 20
35 -3z m325 10 c26 -7 24 -8 -20 -9 -27 0 -57 4 -65 9 -18 12 39 12 85 0z
m-417 -46 c33 -16 41 -29 21 -36 -15 -5 0 -38 18 -38 10 0 13 6 9 16 -5 12 -1
14 17 9 12 -3 32 -11 44 -17 12 -6 30 -7 40 -3 15 6 12 9 -17 17 -60 15 -64
18 -53 29 7 7 24 7 54 0 24 -5 80 -16 124 -23 l80 -13 -85 -6 c-84 -6 -132
-22 -124 -44 5 -11 -83 -42 -92 -32 -3 3 7 12 23 21 24 13 25 15 8 17 -11 1
-26 1 -32 0 -23 -3 -53 19 -53 39 0 18 -36 47 -52 42 -12 -3 -9 13 4 26 16 16
29 15 66 -4z m-378 -33 c0 -5 -12 -16 -26 -26 -14 -9 -44 -33 -66 -53 -32 -29
-41 -33 -49 -21 -8 12 -11 12 -19 -2 -5 -9 -18 -27 -29 -40 -20 -24 -20 -24
-21 -2 0 30 42 76 90 98 24 11 39 24 36 31 -2 7 -2 15 1 18 10 10 83 7 83 -3z
m244 -14 c59 -33 57 -46 -5 -35 -28 5 -54 7 -57 4 -3 -3 -10 4 -17 17 -21 41
19 49 79 14z m853 7 c-3 -3 -12 -4 -19 -1 -8 3 -5 6 6 6 11 1 17 -2 13 -5z
m-187 -34 c22 -11 40 -18 40 -14 0 4 6 1 14 -5 8 -7 27 -17 43 -22 20 -6 12
-7 -32 -3 -73 7 -125 27 -125 48 0 21 13 20 60 -4z m-164 -1 c3 -6 16 -8 27
-5 14 3 33 -4 55 -20 42 -33 36 -41 -11 -15 -21 12 -39 16 -42 11 -9 -15 -25
-12 -25 5 0 8 -7 15 -15 15 -8 0 -15 5 -15 10 0 13 17 13 26 -1z m504 -4 c0
-8 -4 -15 -9 -15 -13 0 -22 16 -14 24 11 11 23 6 23 -9z m-1054 -41 c17 -14
17 -15 1 -10 -10 3 -25 6 -33 6 -8 0 -14 5 -14 10 0 15 24 12 46 -6z m-837
-33 c11 -7 9 -10 -8 -16 -16 -5 -20 -12 -16 -26 5 -14 0 -21 -19 -29 -14 -5
-32 -7 -40 -4 -10 4 -12 -2 -9 -23 l4 -28 -30 33 c-35 37 -39 52 -13 52 11 0
27 9 36 19 16 17 34 25 71 29 6 1 16 -2 24 -7z m817 -2 c11 -19 -12 -31 -45
-24 -34 7 -41 21 -13 28 31 8 51 7 58 -4z m1154 -5 c-15 -17 -61 -15 -68 4 -2
8 9 12 38 12 37 0 41 -2 30 -16z m-845 -12 c-3 -3 -11 0 -18 7 -9 10 -8 11 6
5 10 -3 15 -9 12 -12z m970 8 c4 -6 -11 -10 -37 -10 -31 0 -39 3 -28 10 20 13
57 13 65 0z m-795 -22 c10 -6 4 -7 -21 -3 -27 4 -42 0 -62 -15 -28 -22 -60
-29 -39 -8 17 17 15 28 -4 28 -8 0 -12 5 -8 11 7 13 110 3 134 -13z m75 12 c8
-13 -15 -13 -35 0 -12 8 -11 10 7 10 12 0 25 -4 28 -10z m-399 -30 c-10 -51
-45 -77 -114 -86 -38 -5 -35 11 4 26 28 11 32 30 6 30 -10 0 -22 3 -25 7 -11
10 13 32 28 27 8 -3 24 1 37 10 12 9 33 16 46 16 22 0 24 -3 18 -30z m1187 23
c-7 -2 -19 -2 -25 0 -7 3 -2 5 12 5 14 0 19 -2 13 -5z m-2648 -33 c3 -5 1 -10
-4 -10 -6 0 -11 5 -11 10 0 6 2 10 4 10 3 0 8 -4 11 -10z m1815 -25 c0 -14 -4
-25 -10 -25 -11 0 -14 33 -3 43 11 11 13 8 13 -18z m80 21 c0 -2 -7 -7 -16
-10 -8 -3 -12 -2 -9 4 6 10 25 14 25 6z m-162 -26 c24 0 24 -1 8 -25 -17 -26
-9 -34 12 -13 9 9 15 9 23 1 9 -9 8 -18 -5 -38 -10 -14 -16 -31 -13 -38 2 -6
0 -16 -5 -22 -4 -5 -17 -21 -28 -35 -16 -20 -21 -22 -29 -11 -5 8 -7 20 -4 28
5 13 1 14 -82 16 -16 0 -43 -3 -60 -7 -28 -7 -29 -6 -10 8 19 14 17 14 -21 9
-23 -3 -50 0 -60 6 -17 9 -17 10 6 11 47 2 112 10 121 16 12 7 11 34 -1 34 -5
0 -10 7 -10 15 0 8 5 15 10 15 6 0 10 -4 10 -10 0 -5 6 -8 13 -6 6 3 24 7 40
10 17 4 27 13 27 25 0 24 11 34 24 21 5 -5 21 -10 34 -10z m-1443 -10 c3 -5 2
-10 -4 -10 -5 0 -13 5 -16 10 -3 6 -2 10 4 10 5 0 13 -4 16 -10z m1635 -22 c0
-5 7 -8 15 -8 8 0 15 -4 15 -9 0 -5 -7 -11 -15 -15 -8 -3 -15 -14 -15 -24 0
-11 7 -25 15 -32 18 -15 20 1 3 18 -9 9 -8 12 5 12 25 0 43 -51 23 -62 -8 -5
-13 -15 -10 -23 3 -8 -3 -30 -15 -48 -12 -19 -21 -50 -22 -68 -1 -46 -28 -90
-70 -112 -51 -27 -138 -16 -236 30 -50 24 -71 39 -60 41 10 2 52 -12 94 -32
101 -48 127 -47 175 7 27 31 40 39 46 29 6 -9 12 -6 20 13 17 36 15 55 -5 55
-17 1 -17 1 0 11 26 15 22 56 -6 63 -33 8 -75 89 -58 110 7 8 10 24 6 35 -5
17 0 22 27 29 32 8 68 -2 68 -20z m803 0 c14 -18 28 -48 32 -65 3 -18 10 -35
14 -38 5 -2 6 -16 3 -30 -6 -36 -44 -33 -82 8 -23 23 -30 39 -27 60 2 15 0 27
-5 27 -4 0 -8 -4 -8 -10 0 -5 -9 -10 -19 -10 -23 0 -61 45 -61 71 0 17 8 19
64 19 62 0 66 -2 89 -32z m-603 12 c0 -6 -9 -10 -20 -10 -11 0 -23 0 -27 -1
-4 0 -9 3 -10 8 -2 4 11 9 27 10 17 1 30 -2 30 -7z m380 -16 c13 -13 13 -16 0
-24 -8 -5 -24 -7 -35 -4 -24 8 -21 4 -30 33 -7 22 -5 23 21 17 16 -4 36 -14
44 -22z m-960 -9 c-22 -24 -50 -34 -50 -17 0 8 49 40 64 41 5 1 -1 -10 -14
-24z m740 4 c0 -5 -18 -9 -40 -9 -22 0 -40 4 -40 9 0 4 18 8 40 8 22 0 40 -4
40 -8z m-1092 -11 c7 -7 38 -13 72 -13 64 0 76 -9 34 -25 -38 -15 -144 12
-144 36 0 17 22 18 38 2z m1370 -48 c17 -11 32 -24 32 -30 0 -15 -27 -12 -47
5 -10 8 -27 21 -38 29 l-20 15 20 1 c11 0 35 -9 53 -20z m-72 -42 c29 -23 45
-40 40 -45 -6 -6 -81 38 -89 52 -12 23 15 19 49 -7z m-880 -45 c-11 -11 -19 6
-11 24 8 17 8 17 12 0 3 -10 2 -21 -1 -24z m442 12 c12 -12 -9 -17 -43 -11
-47 9 -47 31 1 23 20 -3 39 -9 42 -12z m372 -35 c58 -10 113 -21 122 -25 10
-4 31 0 49 9 45 22 56 20 31 -7 -12 -13 -22 -26 -22 -29 0 -3 28 -11 63 -18
34 -6 76 -22 92 -34 17 -13 41 -27 54 -31 16 -5 20 -10 11 -15 -9 -6 -8 -15 4
-39 9 -17 21 -31 26 -31 5 0 11 -9 15 -19 5 -17 10 -18 36 -9 46 16 46 2 0
-21 -22 -12 -57 -21 -78 -20 -34 0 -35 1 -15 10 20 8 23 13 17 41 -7 31 -20
47 -37 48 -5 0 -8 -6 -8 -12 0 -7 -9 -2 -19 11 -21 28 -78 32 -116 7 -26 -17
-45 -21 -45 -8 0 4 14 13 30 19 17 6 30 15 30 20 0 15 -144 80 -250 113 -58
18 -113 37 -123 42 -22 11 -11 32 12 22 9 -4 63 -14 121 -24z m-362 1 c11 -6
7 -20 -18 -65 -18 -31 -36 -58 -41 -62 -8 -5 -4 58 7 114 5 23 28 29 52 13z
m-353 -42 c7 -7 -7 -8 -45 -3 -78 10 -101 27 -25 19 33 -3 64 -10 70 -16z
m-220 1 c3 -5 -1 -10 -9 -10 -8 0 -18 5 -21 10 -3 6 1 10 9 10 8 0 18 -4 21
-10z m710 -38 c23 -15 34 -27 27 -30 -7 -2 -31 8 -53 24 -73 50 -53 55 26 6z
m-352 21 c-7 -2 -19 -2 -25 0 -7 3 -2 5 12 5 14 0 19 -2 13 -5z m570 -20 c-7
-2 -21 -2 -30 0 -10 3 -4 5 12 5 17 0 24 -2 18 -5z m-645 -27 c-10 -7 -18 -21
-18 -30 0 -9 -7 -16 -15 -16 -22 0 -18 25 8 43 27 19 49 22 25 3z m782 -12 c0
-2 -24 -4 -52 -3 -38 1 -46 3 -28 8 24 7 80 3 80 -5z m-1220 -34 c0 -5 -2 -10
-4 -10 -3 0 -8 5 -11 10 -3 6 -1 10 4 10 6 0 11 -4 11 -10z m1067 -7 c6 -18
-101 -18 -115 0 -9 11 1 13 50 13 40 -1 63 -5 65 -13z m153 -23 c0 -13 -30
-13 -50 0 -11 7 -7 10 18 10 17 0 32 -4 32 -10z m-573 -41 c-5 -20 4 -28 36
-33 24 -3 47 -27 47 -47 0 -12 7 -19 20 -19 21 0 50 -45 50 -78 0 -11 11 -36
25 -56 14 -20 25 -41 25 -46 0 -31 39 -82 88 -114 63 -41 55 -48 -12 -11 -25
14 -49 25 -54 25 -5 0 -8 -34 -5 -77 2 -43 5 -123 7 -178 7 -194 27 -305 57
-305 12 0 18 -12 23 -40 7 -44 11 -47 40 -25 11 8 24 15 29 15 22 0 -18 -230
-48 -276 -8 -13 -27 -34 -42 -48 l-27 -25 -7 -208 c-7 -202 -15 -256 -46 -318
-35 -68 -107 -185 -116 -185 -12 0 -97 -92 -97 -105 0 -20 -263 -315 -280
-315 -17 0 -11 30 15 68 14 20 25 45 25 55 0 31 27 71 74 110 25 20 62 63 82
95 151 233 196 288 207 258 4 -9 13 -13 21 -10 12 4 13 11 6 24 -12 23 -6 83
14 139 20 55 20 95 0 126 -21 32 -37 32 -54 0 -11 -20 -11 -35 -4 -63 6 -23 7
-50 1 -68 -5 -16 -8 -51 -7 -79 l1 -50 -35 34 c-39 38 -51 36 -60 -14 -4 -22
-17 -41 -32 -52 -24 -15 -29 -15 -72 0 -26 9 -63 16 -83 15 -34 -1 -99 28 -99
44 0 4 -19 8 -42 8 l-43 -1 25 -20 c14 -12 55 -36 91 -55 37 -18 83 -49 103
-68 32 -30 36 -37 26 -56 -10 -18 -17 -20 -62 -14 -28 4 -69 12 -91 19 -41 12
-107 2 -107 -17 0 -4 -11 -8 -23 -8 -13 0 -27 -3 -31 -7 -4 -5 -11 -8 -14 -9
-36 -4 -71 -21 -89 -43 -12 -14 -22 -29 -23 -33 0 -3 18 -9 41 -13 60 -10 43
-27 -49 -50 -44 -11 -84 -23 -88 -27 -13 -14 -44 -8 -44 7 0 8 4 15 10 15 5 0
18 10 29 22 15 15 18 25 10 34 -8 9 -5 16 11 24 11 6 18 15 15 20 -3 5 6 19
19 32 29 27 66 92 66 115 0 23 -56 9 -100 -25 -45 -37 -65 -43 -93 -32 -12 5
-33 11 -47 14 -25 5 -66 62 -49 68 9 3 -1 43 -29 107 -18 44 -8 177 15 190 12
6 13 13 5 27 -10 18 -16 71 -13 107 0 9 9 17 19 17 27 0 32 9 19 31 -17 28 -1
34 35 12 19 -11 45 -23 60 -26 16 -4 31 -19 40 -37 10 -24 18 -30 38 -28 20 2
26 9 28 33 5 52 10 61 28 44 13 -14 13 -19 -1 -52 -18 -44 -19 -67 -2 -67 7 0
18 -9 25 -21 8 -12 19 -18 28 -15 9 3 23 2 32 -3 9 -4 34 -11 54 -15 l38 -7
-25 26 c-14 14 -35 25 -45 25 -11 0 -24 9 -30 20 -6 11 -20 20 -30 20 -13 0
-20 7 -20 20 0 28 27 36 49 16 25 -23 124 -33 156 -16 15 8 40 11 70 7 49 -7
56 0 25 28 -11 10 -16 23 -12 29 3 6 7 15 7 19 0 5 21 16 47 25 26 10 59 27
75 40 15 12 36 22 47 22 19 0 19 1 1 13 -20 16 -21 15 57 57 25 14 62 45 82
69 31 40 33 46 19 57 -9 6 -34 9 -58 6 -40 -4 -43 -2 -53 25 -11 34 -25 38
-177 48 -49 3 -105 8 -124 11 -26 4 -32 2 -28 -9 9 -25 -7 -36 -57 -38 -27 -2
-54 -8 -60 -15 -21 -21 -89 -27 -111 -10 -42 32 -56 21 -67 -49 -3 -14 -10
-19 -23 -17 -11 2 -53 5 -93 6 -78 3 -101 17 -102 63 0 12 -4 24 -10 28 -5 3
-7 13 -4 23 6 19 -40 -28 -49 -50 -4 -10 -8 -10 -16 2 -5 8 -14 11 -18 6 -4
-5 -2 -11 5 -13 16 -6 16 -33 -1 -33 -8 0 -19 10 -26 23 -7 13 -25 28 -42 34
-16 6 -32 20 -36 30 -4 10 -20 41 -36 68 -16 28 -33 62 -38 78 -7 24 -5 27 16
27 13 0 26 4 30 10 3 5 14 1 25 -10 11 -11 31 -20 45 -20 14 0 25 -4 25 -10 0
-5 14 -10 30 -10 40 0 100 -25 100 -42 0 -10 2 -10 9 1 12 18 3 41 -15 41 -8
0 -23 9 -35 21 -15 15 -19 28 -14 50 4 16 13 29 21 29 8 0 14 7 14 15 0 8 1
15 3 15 1 0 29 5 62 11 33 6 76 12 95 15 19 2 53 8 75 14 32 7 23 8 -49 5 -49
-3 -99 -8 -112 -11 -20 -5 -24 -2 -24 15 0 11 -9 26 -20 33 -11 7 -20 17 -20
23 0 6 9 18 20 28 14 11 20 29 20 57 0 38 -1 39 -26 30 -38 -15 -46 -13 -34
10 9 16 8 20 -5 20 -8 0 -15 5 -15 10 0 13 27 13 35 0 4 -7 12 -7 25 0 10 5
32 10 48 10 26 0 28 2 24 31 -3 20 1 35 9 41 11 7 11 11 2 15 -18 7 -16 23 3
23 11 0 13 6 9 19 -5 17 1 22 33 31 22 5 45 17 52 25 7 8 19 15 26 15 8 0 14
5 14 10 0 6 9 10 20 10 22 0 28 26 8 33 -7 2 -10 8 -6 12 4 4 20 3 36 -3 25
-8 33 -7 51 11 18 19 24 20 42 9 25 -16 37 -8 19 13 -25 31 10 15 45 -20 20
-20 49 -37 70 -41 19 -3 32 -10 30 -15 -3 -4 -13 -5 -22 -2 -11 4 -14 3 -9 -5
10 -17 29 -15 65 6 35 19 41 33 11 25 -20 -5 -28 11 -11 21 5 3 9 17 9 31 0
30 18 54 52 67 l25 10 -35 16 -35 16 30 4 c17 2 37 10 45 18 18 15 100 46 100
38 0 -10 -44 -43 -57 -44 -16 0 -17 -20 -1 -20 18 0 117 106 123 133 6 22 34
44 59 46 4 1 6 -8 3 -20z m-494 4 c-7 -2 -19 -2 -25 0 -7 3 -2 5 12 5 14 0 19
-2 13 -5z m157 -25 c15 -24 40 -69 40 -73 0 -1 -19 15 -41 36 -31 29 -48 37
-64 33 -13 -3 -36 1 -52 10 -28 15 -27 15 37 16 57 0 67 -3 80 -22z m-1253
-10 c-3 -8 -6 -5 -6 6 -1 11 2 17 5 13 3 -3 4 -12 1 -19z m2162 0 c26 2 32 -1
28 -13 -4 -8 1 -19 11 -24 13 -8 9 -10 -21 -11 -39 0 -97 24 -97 40 0 5 -6 7
-14 4 -8 -3 -17 0 -21 6 -6 9 4 10 36 4 24 -4 59 -7 78 -6z m-954 -58 c3 -6
-4 -10 -17 -10 -18 0 -20 2 -8 10 19 12 18 12 25 0z m710 -20 c13 -5 14 -9 5
-9 -8 0 -24 4 -35 9 -13 5 -14 9 -5 9 8 0 24 -4 35 -9z m252 -22 c-3 -8 -6 -5
-6 6 -1 11 2 17 5 13 3 -3 4 -12 1 -19z m-132 1 c19 0 19 -1 -2 -9 -21 -9 -93
4 -93 17 0 3 17 3 38 -1 20 -3 46 -6 57 -7z m-855 -99 c0 -5 -9 -9 -20 -7 -31
5 -36 17 -7 17 15 0 27 -4 27 -10z m1170 -65 c3 -45 1 -49 -15 -35 -8 7 -15
27 -15 45 0 60 26 52 30 -10z m-3684 -5 c28 -88 37 -348 41 -1275 4 -782 2
-943 -9 -958 -8 -10 -32 -21 -54 -24 -37 -5 -42 -3 -47 18 -5 23 -7 153 -12
1019 -4 523 11 1200 27 1235 16 35 40 28 54 -15z m2527 28 c27 -16 37 -29 31
-40 -9 -15 -23 -8 -44 22 -23 33 -21 36 13 18z m927 -49 c0 -11 -4 -17 -10
-14 -5 3 -10 15 -10 26 0 11 5 17 10 14 6 -3 10 -15 10 -26z m51 14 c13 -16
12 -17 -3 -4 -17 13 -22 21 -14 21 2 0 10 -8 17 -17z m189 -78 c10 -25 -4 -75
-21 -75 -6 0 -6 64 1 98 1 10 12 -2 20 -23z m88 -163 c4 -23 -13 -52 -29 -52
-5 0 -9 18 -9 41 0 33 3 40 18 37 9 -2 18 -14 20 -26z m-273 8 c19 -8 19 -9
-2 -9 -12 -1 -23 -7 -26 -13 -2 -8 -8 -9 -13 -4 -5 5 -4 11 4 13 6 3 10 9 6
14 -6 11 4 11 31 -1z m-1637 -31 c31 -12 28 -27 -4 -21 -20 4 -25 2 -19 -8 5
-9 4 -11 -4 -6 -6 4 -19 2 -28 -5 -13 -11 -17 -10 -28 4 -7 9 -20 17 -29 17
-10 0 -14 5 -11 11 4 6 13 8 21 5 8 -3 20 1 26 9 13 14 26 13 76 -6z m1912
-59 c0 -5 -2 -10 -4 -10 -3 0 -8 5 -11 10 -3 6 -1 10 4 10 6 0 11 -4 11 -10z
m-1935 -220 c3 -5 1 -10 -4 -10 -6 0 -11 5 -11 10 0 6 2 10 4 10 3 0 8 -4 11
-10z m1830 -18 c0 -31 -19 -28 -23 4 -3 18 0 25 10 22 7 -3 13 -14 13 -26z
m220 -112 c-28 -12 -67 -12 -60 0 3 6 23 10 43 9 30 0 33 -2 17 -9z m-405
-331 c0 -11 107 -79 124 -79 9 0 16 -4 16 -10 0 -16 -58 -12 -93 6 -45 23 -76
64 -76 99 0 29 0 29 14 11 8 -11 15 -23 15 -27z m-1765 -358 c3 -5 0 -13 -5
-16 -8 -5 -6 -13 5 -25 22 -25 11 -95 -14 -84 -9 4 -29 8 -46 9 -19 1 -31 8
-33 18 -3 14 5 17 36 17 47 0 57 8 37 30 -8 9 -12 25 -8 38 6 23 18 29 28 13z
m1769 -627 c15 -6 23 -34 10 -34 -15 0 -44 22 -39 31 7 11 9 11 29 3z m-996
-283 c-23 -46 -46 -74 -78 -97 -25 -17 -48 -29 -52 -27 -5 2 -8 0 -8 -5 0 -12
-50 -45 -67 -45 -7 0 -10 -4 -8 -8 5 -8 -19 -19 -42 -19 -9 0 -21 7 -27 15 -7
10 -29 16 -64 16 -46 1 -52 4 -47 20 5 14 2 17 -9 13 -10 -4 -16 -1 -16 7 0
17 30 49 47 49 16 0 17 14 1 41 -11 17 -10 23 0 26 7 3 19 12 27 20 9 8 22 12
30 9 8 -3 15 -1 15 4 0 6 5 10 10 10 6 0 10 -7 10 -15 0 -25 17 -17 52 24 l33
39 105 7 c57 3 107 8 110 11 3 3 6 -2 8 -13 1 -10 -12 -47 -30 -82z m-390 -52
c-2 -6 -8 -10 -13 -10 -5 0 -11 4 -13 10 -2 6 4 11 13 11 9 0 15 -5 13 -11z
m-28 -39 c0 -5 -2 -10 -4 -10 -3 0 -8 5 -11 10 -3 6 -1 10 4 10 6 0 11 -4 11
-10z m1940 -370 c0 -5 -4 -10 -10 -10 -5 0 -10 5 -10 10 0 6 5 10 10 10 6 0
10 -4 10 -10z m-600 -190 c0 -5 -7 -10 -15 -10 -8 0 -15 5 -15 10 0 6 7 10 15
10 8 0 15 -4 15 -10z m824 -174 c-3 -14 -10 -26 -14 -26 -16 0 -20 18 -10 46
14 35 34 18 24 -20z m-1734 -46 c0 -5 7 -10 15 -10 8 0 15 -5 15 -10 0 -6 11
-8 28 -4 23 6 25 5 14 -8 -7 -9 -10 -23 -6 -32 3 -9 1 -16 -6 -16 -15 0 -40
25 -40 40 0 6 -6 13 -14 16 -17 7 -30 34 -16 34 6 0 10 -4 10 -10z m1720 -20
c10 -18 8 -20 -20 -20 -23 0 -30 4 -30 20 0 13 7 20 20 20 10 0 24 -9 30 -20z
m-290 -31 c0 -25 -3 -29 -13 -20 -8 6 -17 8 -20 4 -4 -3 -7 1 -7 11 0 9 5 14
10 11 6 -3 13 1 16 9 9 24 14 19 14 -15z m-1430 -37 c0 -8 -1 -13 -3 -11 -1 2
-9 12 -16 22 -12 15 -12 17 3 11 9 -3 16 -13 16 -22z m1644 -18 c9 -3 16 -12
16 -19 0 -7 7 -18 15 -25 21 -18 18 -29 -6 -23 -12 4 -25 0 -30 -8 -8 -12 -11
-12 -19 1 -12 19 -13 33 -1 25 16 -10 21 12 6 25 -8 7 -12 16 -9 21 6 11 8 11
28 3z m-1624 -59 c0 -8 -4 -15 -10 -15 -5 0 -10 7 -10 15 0 8 5 15 10 15 6 0
10 -7 10 -15z m-27 -35 c9 -16 12 -32 7 -35 -10 -6 -41 51 -32 59 8 9 10 8 25
-24z m1178 18 c1 -7 1 -18 0 -24 -1 -6 6 -17 14 -24 33 -27 6 -42 -28 -15 -15
10 -17 21 -12 44 7 31 24 43 26 19z m-1181 -87 c0 -6 -4 -13 -10 -16 -5 -3
-10 1 -10 9 0 9 5 16 10 16 6 0 10 -4 10 -9z m-20 -71 c0 -5 -4 -10 -10 -10
-5 0 -10 5 -10 10 0 6 5 10 10 10 6 0 10 -4 10 -10z m-20 -54 c0 -3 -4 -8 -10
-11 -5 -3 -10 -1 -10 4 0 6 5 11 10 11 6 0 10 -2 10 -4z m225 -75 c3 -5 1 -12
-5 -16 -5 -3 -10 1 -10 9 0 18 6 21 15 7z m85 -117 c0 -19 -4 -34 -10 -34 -10
0 -11 5 -14 40 -1 8 -9 14 -19 12 -22 -4 -22 15 1 20 30 7 42 -3 42 -38z"/>
<path d="M2792 5440 c-7 -12 -25 -26 -40 -32 l-27 -12 27 -4 c15 -2 36 2 48 8
15 8 20 8 21 -2 0 -7 4 -4 8 7 8 20 -3 55 -17 55 -4 0 -13 -9 -20 -20z"/>
<path d="M2980 5433 c0 -4 5 -15 10 -23 7 -11 12 -12 21 -3 8 8 6 14 -10 22
-12 7 -21 8 -21 4z"/>
<path d="M3420 4005 c0 -14 4 -25 9 -25 12 0 23 29 15 41 -10 18 -24 9 -24
-16z"/>
<path d="M2340 3900 c0 -5 5 -10 11 -10 5 0 7 5 4 10 -3 6 -8 10 -11 10 -2 0
-4 -4 -4 -10z"/>
<path d="M2333 5993 c9 -2 23 -2 30 0 6 3 -1 5 -18 5 -16 0 -22 -2 -12 -5z"/>
<path d="M2661 5996 c12 -10 60 -16 54 -6 -3 5 -18 10 -32 10 -15 0 -24 -2
-22 -4z"/>
<path d="M4422 5763 l3 -238 38 -3 37 -3 0 240 0 241 -40 0 -40 0 2 -237z"/>
<path d="M3205 2850 c3 -5 8 -10 11 -10 2 0 4 5 4 10 0 6 -5 10 -11 10 -5 0
-7 -4 -4 -10z"/>
<path d="M3142 2449 c14 -24 34 -45 45 -47 14 -2 13 2 -9 21 -14 13 -28 32
-30 42 -1 10 -9 20 -17 23 -10 3 -6 -10 11 -39z"/>
<path d="M4056 2452 c-3 -6 -1 -14 5 -17 15 -10 25 3 12 16 -7 7 -13 7 -17 1z"/>
<path d="M3270 2440 c0 -5 5 -10 11 -10 5 0 7 5 4 10 -3 6 -8 10 -11 10 -2 0
-4 -4 -4 -10z"/>
<path d="M4280 2328 c34 -27 69 -33 88 -15 21 22 17 24 -52 29 -59 5 -59 5
-36 -14z"/>
<path d="M4115 2310 c-4 -6 -16 -8 -27 -4 -18 5 -20 3 -13 -12 15 -38 17 -64
5 -79 -10 -12 -9 -15 8 -15 12 0 23 -4 27 -9 5 -9 62 -41 73 -41 3 0 -2 8 -10
18 -9 9 -21 47 -29 85 -12 65 -21 79 -34 57z"/>
<path d="M3485 2297 c-4 -10 -5 -21 -1 -24 10 -10 18 4 13 24 -4 17 -4 17 -12
0z"/>
<path d="M3117 2273 c-4 -3 -7 -11 -7 -17 0 -6 5 -5 12 2 6 6 9 14 7 17 -3 3
-9 2 -12 -2z"/>
<path d="M3810 2220 c0 -5 5 -10 10 -10 6 0 10 5 10 10 0 6 -4 10 -10 10 -5 0
-10 -4 -10 -10z"/>
<path d="M3720 2210 c0 -5 5 -10 10 -10 6 0 10 5 10 10 0 6 -4 10 -10 10 -5 0
-10 -4 -10 -10z"/>
<path d="M3461 2152 c-1 -31 3 -42 12 -40 15 5 23 48 8 48 -5 0 -12 8 -14 18
-3 9 -5 -2 -6 -26z"/>
<path d="M4455 2160 c4 -6 10 -8 14 -5 10 6 24 -136 16 -157 -4 -9 -2 -19 4
-23 8 -4 11 26 11 94 l0 101 -26 0 c-14 0 -23 -4 -19 -10z"/>
<path d="M4060 2150 c0 -5 5 -10 10 -10 6 0 10 5 10 10 0 6 -4 10 -10 10 -5 0
-10 -4 -10 -10z"/>
<path d="M4218 2123 c7 -3 16 -2 19 1 4 3 -2 6 -13 5 -11 0 -14 -3 -6 -6z"/>
<path d="M4050 2104 c0 -9 -8 -23 -17 -30 -14 -10 -15 -15 -6 -24 15 -16 33
-4 33 20 0 10 5 22 10 25 12 7 4 25 -11 25 -5 0 -9 -7 -9 -16z"/>
<path d="M4482 1938 c-7 -7 -8 -16 -3 -22 5 -6 11 -20 14 -31 2 -11 5 -1 6 23
1 46 0 47 -17 30z"/>
<path d="M4450 1215 c0 -8 -8 -15 -17 -15 -16 0 -15 -2 2 -19 11 -10 30 -22
43 -26 20 -6 22 -3 22 34 0 37 -2 41 -25 41 -16 0 -25 -6 -25 -15z"/>
</g>
</svg>
